<svg width="48" height="48" xmlns="http://www.w3.org/2000/svg" xmlns:xlink="http://www.w3.org/1999/xlink"><defs><linearGradient id="b"><stop style="stop-color:#bd8d48"/><stop offset="1" style="stop-color:#e8b971"/></linearGradient><linearGradient id="d" xlink:href="#a" y1="543.798" y2="503.798" x1="434.571" gradientUnits="userSpaceOnUse" x2="384.571"/><linearGradient id="a"><stop style="stop-color:#343b40"/><stop offset="1" style="stop-color:#555e63"/></linearGradient><linearGradient id="e" xlink:href="#b" y1="44" y2="4" gradientUnits="userSpaceOnUse" x2="0" gradientTransform="translate(384.571 499.798)"/><linearGradient id="c"><stop style="stop-color:#383e51"/><stop offset="1" style="stop-color:#655c6f;stop-opacity:0"/></linearGradient><linearGradient xlink:href="#c" id="f" y1="17" x1="17" y2="40" x2="40" gradientUnits="userSpaceOnUse"/></defs><path style="stroke-opacity:.550265;fill:url(#d);stroke-width:2.8" d="M384.571 503.798h48v40h-48z" transform="translate(-384.571 -499.798)"/><path style="stroke-opacity:.550265;fill:url(#e);stroke-width:2.8" d="M384.571 503.798v40h48v-40h-48zm2 2h44v36h-44v-36z" transform="translate(-384.571 -499.798)"/><path style="fill:url(#f);opacity:.2;fill-rule:evenodd" d="M6 25v16H5v3h43V28l-3-3h-3.805c-9.208 2.61-9.571 14.545-14.683 14.508-5.11-.038-7.87-11.906-17.594-14.508H6z"/><path style="stroke-opacity:.550265;fill:#aa7f41;stroke-width:2.8" d="M384.571 542.798h48v1h-48z" transform="translate(-384.571 -499.798)"/><path style="shape-rendering:auto;color-interpolation-filters:linearRGB;fill:#aa7f41;image-rendering:auto;fill-opacity:.498039;text-rendering:auto;color:#000;color-rendering:auto;color-interpolation:sRGB" d="M2 6v36h44V6H2zm1 1h42v34H3V7z"/><path style="fill:none;stroke:#787e82;stroke-width:.984036" d="M389.571 524.29c13.006 0 15.772 14.973 21.511 15.016 5.74.042 5.484-15.016 18.49-15.016" transform="translate(-384.571 -499.798)"/><path style="fill:none;stroke:#5090c3;stroke-width:.984036" d="M389.571 523.306c13.006 0 15.772-10.274 21.511-10.316 5.74-.042 5.484 10.316 18.49 10.316" transform="translate(-384.571 -499.798)"/><path style="shape-rendering:auto;color-interpolation-filters:linearRGB;fill:#d6d6d6;image-rendering:auto;text-rendering:auto;color:#000;color-rendering:auto;color-interpolation:sRGB" d="M389.571 506.798h1v34h-1z" transform="translate(-384.571 -499.798)"/><path style="fill:none;stroke:#d6d6d6;stroke-width:.984036" d="M389.571 523.306c13.006 0 15.772-14.973 21.511-15.016 5.74-.042 5.484 15.016 18.49 15.016" transform="translate(-384.571 -499.798)"/><path style="shape-rendering:auto;color-interpolation-filters:linearRGB;fill:#007ad9;image-rendering:auto;text-rendering:auto;color:#000;color-rendering:auto;color-interpolation:sRGB" d="M419.571 539.798h4v1h-4z" transform="translate(-384.571 -499.798)"/><path style="shape-rendering:auto;color-interpolation-filters:linearRGB;fill:#fff;image-rendering:auto;text-rendering:auto;color:#000;color-rendering:auto;color-interpolation:sRGB" d="M424.571 539.798h4v1h-4z" transform="translate(-384.571 -499.798)"/><path style="shape-rendering:auto;color-interpolation-filters:linearRGB;fill:#d6d6d6;image-rendering:auto;text-rendering:auto;color:#000;color-rendering:auto;color-interpolation:sRGB" d="M390.571 523.798h39v1h-39z" transform="translate(-384.571 -499.798)"/><path style="shape-rendering:auto;color-interpolation-filters:linearRGB;fill:#d6d6d6;image-rendering:auto;text-rendering:auto;color:#000;color-rendering:auto;color-interpolation:sRGB" d="M396.571 522.798h1v3h-1zM410.572 522.798h1v3h-1zM424.571 522.798h1v3h-1z" transform="translate(-384.571 -499.798)"/></svg>