<svg xmlns="http://www.w3.org/2000/svg" xml:space="preserve" style="enable-background:new 0 0 160.5 120.4" viewBox="0 0 160.5 120.4" y="0" x="0" id="svg4446" version="1.1">
    <style id="style833" type="text/css">
        .st0{fill:#83b9f5}.st1{fill:#f38577}
    </style>
    <g transform="translate(0 75.638)" id="layer1">
        <g transform="matrix(.88964 0 0 .88964 1492.307 1727.845)" id="g5995-0-6">
            <g transform="matrix(1.00484 0 0 1.00484 -4.816 7.011)" id="g5997-6-2">
                <path d="M-1598.1-2004.7v7.5h10.3v-7.5z" class="st0" id="path5999-1-9"/>
                <path d="M-1606.2-1992.6v7.5h18.5v-7.5z" class="st0" id="path6001-5-1"/>
                <path d="M-1627.9-1980.5v7.5h40.1v-7.5z" class="st0" id="path6003-54-2"/>
                <path d="M-1650-1968.5v7.5h62.2v-7.5z" class="st0" id="path6005-7-7"/>
                <path d="M-1664.6-1956.4v7.5h76.8v-7.5z" class="st0" id="path6007-6-09"/>
                <path d="M-1640.3-1944.4v7.5h52.5v-7.5z" class="st0" id="path6009-5-3"/>
                <path d="M-1618.9-1932.3v7.5h31.2v-7.5z" class="st0" id="path6011-6-6"/>
                <path d="M-1627.3-1920.3v7.5h39.6v-7.5z" class="st0" id="path6013-9-0"/>
                <path d="M-1606.9-1908.8v7.5h19.1v-7.5z" class="st0" id="path6015-3-6"/>
            </g>
            <g transform="matrix(-3.51396 0 0 3.51396 1727.667 -3255.55)" id="g6017-7-2">
                <path d="M938.1 349.6h9.3l-4.6 7.1z" class="st1" id="path6019-4-61"/>
                <path d="M942.2 350.9v37.2h1.2v-37.2z" class="st1" id="path6021-5-8"/>
            </g>
            <path d="M-1567.7-2007.4c-1.5 0-2.8 1.2-2.8 2.7v98.7c0 2.2 2.5 3.5 4.3 2.2l68-49.3c1.5-1.1 1.5-3.3 0-4.4l-68-49.3c-.4-.4-.9-.6-1.5-.6z" id="path6023-2-7" style="fill:#527eb2"/>
        </g>
    </g>
</svg>
