<?xml version="1.0" encoding="UTF-8"?>
<svg version="1.1" viewBox="0 0 512 512" xmlns="http://www.w3.org/2000/svg" xmlns:cc="http://creativecommons.org/ns#" xmlns:dc="http://purl.org/dc/elements/1.1/" xmlns:rdf="http://www.w3.org/1999/02/22-rdf-syntax-ns#">
<defs>
<clipPath id="g">
<path d="m371.01 489.89h13.025v-36.841h-13.025z"/>
</clipPath>
<clipPath id="f">
<path d="m416.7 489.89h13.026v-36.841h-13.026z"/>
</clipPath>
<clipPath id="e">
<path d="m381.95 500.83h36.84v-13.025h-36.84z"/>
</clipPath>
<clipPath id="d">
<path d="m381.95 455.14h36.84v-13.025h-36.84z"/>
</clipPath>
<clipPath id="c">
<path d="m377.82 494.01h45.08v-45.078h-45.08z"/>
</clipPath>
<clipPath id="b">
<path d="m372.8 499.03h55.132v-28.96h-55.132z"/>
</clipPath>
<clipPath id="a">
<path d="m390.84 480.99h19.048v-10.918h-19.048z"/>
</clipPath>
</defs>
<metadata>
<rdf:RDF>
<cc:Work rdf:about="">
<dc:format>image/svg+xml</dc:format>
<dc:type rdf:resource="http://purl.org/dc/dcmitype/StillImage"/>
<dc:title/>
</cc:Work>
</rdf:RDF>
</metadata>
<g transform="translate(0,215)">
<g transform="matrix(6.9712 0 0 -6.9712 -724.49 3324.5)" stroke-width=".050605">
<g transform="matrix(.99834 0 0 .99834 -259.41 .091678)" stroke-width=".0025651">
<g transform="translate(381.63 457.86)">
<path d="m0 0c1.326 0 2.402-1.075 2.402-2.402s-1.076-2.403-2.402-2.403h-13.348c-1.326 0-2.402 1.076-2.402 2.403s1.076 2.402 2.402 2.402z" fill="#dce2e9"/>
</g>
<g transform="translate(381.63 465.87)">
<path d="m0 0c1.326 0 2.402-1.075 2.402-2.402 0-1.326-1.076-2.403-2.402-2.403h-13.348c-1.326 0-2.402 1.077-2.402 2.403 0 1.327 1.076 2.402 2.402 2.402z" fill="#dce2e9"/>
</g>
<g transform="translate(381.63 473.88)">
<path d="m0 0c1.326 0 2.402-1.078 2.402-2.405s-1.076-2.4-2.402-2.4h-13.348c-1.326 0-2.402 1.073-2.402 2.4s1.076 2.405 2.402 2.405z" fill="#dce2e9"/>
</g>
<g transform="translate(381.63 481.88)">
<path d="m0 0c1.326 0 2.402-1.073 2.402-2.401 0-1.325-1.076-2.404-2.402-2.404h-13.348c-1.326 0-2.402 1.079-2.402 2.404 0 1.328 1.076 2.401 2.402 2.401z" fill="#dce2e9"/>
</g>
<g transform="translate(381.63 489.89)">
<path d="m0 0c1.326 0 2.402-1.08 2.402-2.404 0-1.328-1.076-2.4-2.402-2.4h-13.348c-1.326 0-2.402 1.072-2.402 2.4 0 1.324 1.076 2.404 2.402 2.404z" fill="#dce2e9"/>
</g>
<g stroke-width=".0025651">
<g clip-path="url(#g)" stroke-width=".0025651">
<g transform="translate(371.01 453.05)">
<path d="m0 0h10.623c1.326 0 2.402 1.076 2.402 2.403 0 1.326-1.076 2.402-2.402 2.402h-10.623z" fill="#dce2e9"/>
</g>
<g transform="translate(371.01 461.06)">
<path d="m0 0h10.623c1.326 0 2.402 1.077 2.402 2.403 0 1.327-1.076 2.402-2.402 2.402h-10.623z" fill="#dce2e9"/>
</g>
<g transform="translate(371.01 469.07)">
<path d="m0 0h10.623c1.326 0 2.402 1.073 2.402 2.4 0 1.328-1.076 2.405-2.402 2.405h-10.623z" fill="#dce2e9"/>
</g>
<g transform="translate(371.01 477.08)">
<path d="m0 0h10.623c1.326 0 2.402 1.079 2.402 2.404 0 1.328-1.076 2.401-2.402 2.401h-10.623z" fill="#dce2e9"/>
</g>
<g transform="translate(371.01 485.09)">
<path d="m0 0h10.623c1.326 0 2.402 1.072 2.402 2.4 0 1.325-1.076 2.404-2.402 2.404h-10.623z" fill="#dce2e9"/>
</g>
</g>
</g>
<g transform="translate(419.1 485.09)">
<path d="m0 0c-1.326 0-2.402 1.075-2.402 2.401 0 1.328 1.076 2.403 2.402 2.403h13.348c1.326 0 2.402-1.075 2.402-2.403 0-1.326-1.076-2.401-2.402-2.401z" fill="#dce2e9"/>
</g>
<g transform="translate(419.1 477.08)">
<path d="m0 0c-1.326 0-2.402 1.075-2.402 2.402 0 1.326 1.076 2.404 2.402 2.404h13.348c1.326 0 2.402-1.078 2.402-2.404 0-1.327-1.076-2.402-2.402-2.402z" fill="#dce2e9"/>
</g>
<g transform="translate(419.1 469.07)">
<path d="m0 0c-1.326 0-2.402 1.077-2.402 2.405 0 1.327 1.076 2.4 2.402 2.4h13.348c1.326 0 2.402-1.073 2.402-2.4 0-1.328-1.076-2.405-2.402-2.405z" fill="#dce2e9"/>
</g>
<g transform="translate(419.1 461.06)">
<path d="m0 0c-1.326 0-2.402 1.073-2.402 2.401 0 1.325 1.076 2.404 2.402 2.404h13.348c1.326 0 2.402-1.079 2.402-2.404 0-1.328-1.076-2.401-2.402-2.401z" fill="#dce2e9"/>
</g>
<g transform="translate(419.1 453.05)">
<path d="m0 0c-1.326 0-2.402 1.08-2.402 2.404 0 1.328 1.076 2.401 2.402 2.401h13.348c1.326 0 2.402-1.073 2.402-2.401 0-1.324-1.076-2.404-2.402-2.404z" fill="#dce2e9"/>
</g>
<g stroke-width=".0025651">
<g clip-path="url(#f)" stroke-width=".0025651">
<g transform="translate(429.73 489.89)">
<path d="m0 0h-10.623c-1.326 0-2.402-1.075-2.402-2.403 0-1.326 1.076-2.401 2.402-2.401h10.623z" fill="#dce2e9"/>
</g>
<g transform="translate(429.73 481.89)">
<path d="m0 0h-10.623c-1.326 0-2.402-1.078-2.402-2.403 0-1.327 1.076-2.403 2.402-2.403h10.623z" fill="#dce2e9"/>
</g>
<g transform="translate(429.73 473.88)">
<path d="m0 0h-10.623c-1.326 0-2.402-1.073-2.402-2.4 0-1.328 1.076-2.405 2.402-2.405h10.623z" fill="#dce2e9"/>
</g>
<g transform="translate(429.73 465.87)">
<path d="m0 0h-10.623c-1.326 0-2.402-1.079-2.402-2.404 0-1.328 1.076-2.401 2.402-2.401h10.623z" fill="#dce2e9"/>
</g>
<g transform="translate(429.73 457.86)">
<path d="m0 0h-10.623c-1.326 0-2.402-1.073-2.402-2.4 0-1.325 1.076-2.405 2.402-2.405h10.623z" fill="#dce2e9"/>
</g>
</g>
</g>
<g transform="translate(386.75 490.21)">
<path d="m0 0c0-1.326-1.075-2.402-2.401-2.402-1.328 0-2.403 1.076-2.403 2.402v13.348c0 1.325 1.075 2.402 2.403 2.402 1.326 0 2.401-1.077 2.401-2.402z" fill="#dce2e9"/>
</g>
<g transform="translate(394.76 490.21)">
<path d="m0 0c0-1.326-1.075-2.402-2.402-2.402s-2.403 1.076-2.403 2.402v13.348c0 1.325 1.076 2.402 2.403 2.402s2.402-1.077 2.402-2.402z" fill="#dce2e9"/>
</g>
<g transform="translate(402.77 490.21)">
<path d="m0 0c0-1.326-1.077-2.402-2.405-2.402-1.326 0-2.4 1.076-2.4 2.402v13.348c0 1.325 1.074 2.402 2.4 2.402 1.328 0 2.405-1.077 2.405-2.402z" fill="#dce2e9"/>
</g>
<g transform="translate(410.78 490.21)">
<path d="m0 0c0-1.326-1.072-2.402-2.4-2.402-1.326 0-2.405 1.076-2.405 2.402v13.348c0 1.325 1.079 2.402 2.405 2.402 1.328 0 2.4-1.077 2.4-2.402z" fill="#dce2e9"/>
</g>
<g transform="translate(418.79 490.21)">
<path d="m0 0c0-1.326-1.079-2.402-2.404-2.402-1.328 0-2.4 1.076-2.4 2.402v13.348c0 1.325 1.072 2.402 2.4 2.402 1.325 0 2.404-1.077 2.404-2.402z" fill="#dce2e9"/>
</g>
<g stroke-width=".0025651">
<g clip-path="url(#e)" stroke-width=".0025651">
<g transform="translate(381.95 500.83)">
<path d="m0 0v-10.623c0-1.326 1.074-2.402 2.402-2.402 1.327 0 2.402 1.076 2.402 2.402v10.623z" fill="#dce2e9"/>
</g>
<g transform="translate(389.96 500.83)">
<path d="m0 0v-10.623c0-1.326 1.076-2.402 2.402-2.402 1.327 0 2.403 1.076 2.403 2.402v10.623z" fill="#dce2e9"/>
</g>
<g transform="translate(397.97 500.83)">
<path d="m0 0v-10.623c0-1.326 1.073-2.402 2.399-2.402 1.329 0 2.406 1.076 2.406 2.402v10.623z" fill="#dce2e9"/>
</g>
<g transform="translate(405.97 500.83)">
<path d="m0 0v-10.623c0-1.326 1.079-2.402 2.404-2.402 1.328 0 2.401 1.076 2.401 2.402v10.623z" fill="#dce2e9"/>
</g>
<g transform="translate(413.99 500.83)">
<path d="m0 0v-10.623c0-1.326 1.071-2.402 2.399-2.402 1.326 0 2.405 1.076 2.405 2.402v10.623z" fill="#dce2e9"/>
</g>
</g>
</g>
<g transform="translate(413.99 452.74)">
<path d="m0 0c0 1.326 1.075 2.402 2.401 2.402 1.328 0 2.403-1.076 2.403-2.402v-13.348c0-1.325-1.075-2.402-2.403-2.402-1.326 0-2.401 1.077-2.401 2.402z" fill="#dce2e9"/>
</g>
<g transform="translate(405.98 452.74)">
<path d="m0 0c0 1.326 1.075 2.402 2.402 2.402s2.403-1.076 2.403-2.402v-13.348c0-1.325-1.076-2.402-2.403-2.402s-2.402 1.077-2.402 2.402z" fill="#dce2e9"/>
</g>
<g transform="translate(397.97 452.74)">
<path d="m0 0c0 1.326 1.077 2.402 2.405 2.402 1.326 0 2.4-1.076 2.4-2.402v-13.348c0-1.325-1.074-2.402-2.4-2.402-1.328 0-2.405 1.077-2.405 2.402z" fill="#dce2e9"/>
</g>
<g transform="translate(389.96 452.74)">
<path d="m0 0c0 1.326 1.072 2.402 2.4 2.402 1.326 0 2.405-1.076 2.405-2.402v-13.348c0-1.325-1.079-2.402-2.405-2.402-1.328 0-2.4 1.077-2.4 2.402z" fill="#dce2e9"/>
</g>
<g transform="translate(381.95 452.74)">
<path d="m0 0c0 1.326 1.079 2.402 2.404 2.402 1.327 0 2.4-1.076 2.4-2.402v-13.348c0-1.325-1.073-2.402-2.4-2.402-1.325 0-2.404 1.077-2.404 2.402z" fill="#dce2e9"/>
</g>
<g stroke-width=".0025651">
<g clip-path="url(#d)" stroke-width=".0025651">
<g transform="translate(418.79 442.12)">
<path d="m0 0v10.623c0 1.325-1.075 2.401-2.402 2.401s-2.402-1.076-2.402-2.401v-10.623z" fill="#dce2e9"/>
</g>
<g transform="translate(410.78 442.12)">
<path d="m0 0v10.623c0 1.325-1.076 2.401-2.402 2.401-1.327 0-2.403-1.076-2.403-2.401v-10.623z" fill="#dce2e9"/>
</g>
<g transform="translate(402.77 442.12)">
<path d="m0 0v10.623c0 1.325-1.073 2.401-2.399 2.401-1.329 0-2.406-1.076-2.406-2.401v-10.623z" fill="#dce2e9"/>
</g>
<g transform="translate(394.77 442.12)">
<path d="m0 0v10.623c0 1.325-1.079 2.401-2.404 2.401-1.328 0-2.401-1.076-2.401-2.401v-10.623z" fill="#dce2e9"/>
</g>
<g transform="translate(386.75 442.12)">
<path d="m0 0v10.623c0 1.325-1.072 2.401-2.399 2.401-1.326 0-2.405-1.076-2.405-2.401v-10.623z" fill="#dce2e9"/>
</g>
</g>
</g>
<g transform="translate(427.93 451.52)">
<path d="m0 0c0-4.207-3.412-7.618-7.619-7.618h-39.893c-4.211 0-7.62 3.411-7.62 7.618v39.894c0 4.209 3.409 7.619 7.62 7.619h39.893c4.207 0 7.619-3.41 7.619-7.619z" fill="#dce2e9"/>
</g>
<g stroke-width=".0025651">
<g clip-path="url(#c)" stroke-width=".0025651">
<g transform="translate(384.17 448.93)" stroke-width=".0025651">
<path d="m0 0c-3.501 0-6.351 2.848-6.351 6.349v32.381c0 3.5 2.85 6.348 6.351 6.348h32.38c3.501 0 6.349-2.848 6.349-6.348v-32.381c0-3.501-2.848-6.349-6.349-6.349z" fill="#dce2e9"/>
</g>
</g>
</g>
<g transform="translate(421.63 455.28)">
<path d="m0 0c0-2.805-2.275-5.079-5.08-5.079h-32.38c-2.806 0-5.079 2.274-5.079 5.079v32.381c0 2.805 2.273 5.079 5.079 5.079h32.38c2.805 0 5.08-2.274 5.08-5.079z" fill="#8c93a1"/>
</g>
<g stroke-width=".0025651">
<g clip-path="url(#b)" opacity=".5" stroke-width=".0025651">
<g transform="translate(400.36 470.07)" stroke-width=".0025651">
<path d="m0 0c11.896 0 22.245 6.623 27.565 16.381v4.96c0 4.209-3.412 7.619-7.619 7.619h-39.892c-4.211 0-7.62-3.41-7.62-7.619v-4.96c5.319-9.758 15.669-16.381 27.566-16.381" fill="#dce2e9"/>
</g>
</g>
</g>
<g transform="translate(411.79 462.58)">
<path d="m0 0c0-1.403-1.137-2.54-2.54-2.54h-17.777c-1.402 0-2.54 1.137-2.54 2.54v17.777c0 1.403 1.138 2.54 2.54 2.54h17.777c1.403 0 2.54-1.137 2.54-2.54z" fill="#dce2e9"/>
</g>
<g transform="translate(409.88 464.06)">
<path d="m0 0c0-1.169-0.947-2.117-2.115-2.117h-14.817c-1.169 0-2.116 0.948-2.116 2.117v14.814c0 1.169 0.947 2.117 2.116 2.117h14.817c1.168 0 2.115-0.948 2.115-2.117z" fill="#ffc52f"/>
</g>
<g stroke-width=".0025651">
<g clip-path="url(#a)" opacity=".8" stroke-width=".0025651">
<g transform="translate(407.77 480.99)" stroke-width=".0025651">
<path d="m0 0h-14.816c-1.169 0-2.117-0.948-2.117-2.117v-7.324c3.005-0.956 6.203-1.477 9.526-1.477 3.32 0 6.518 0.521 9.522 1.477v7.324c0 1.169-0.947 2.117-2.115 2.117" fill="#ffc52f"/>
</g>
</g>
</g>
</g>
</g>
</g>
</svg>
